<?xml version="1.0" encoding="utf-8"?>
<!-- Generator: Adobe Illustrator 22.1.0, SVG Export Plug-In . SVG Version: 6.00 Build 0)  -->
<svg version="1.1" id="Layer_1" xmlns="http://www.w3.org/2000/svg" xmlns:xlink="http://www.w3.org/1999/xlink" x="0px" y="0px"
	 viewBox="0 0 155.4 60.2" style="enable-background:new 0 0 155.4 60.2;" xml:space="preserve">
<style type="text/css">
	.st0{fill:#A9804F;}
	.st1{fill:#9E7C46;}
</style>
<g>
	<path class="st1" d="M151.4,2c1.1,0,2,0.9,2,2v52.2c0,1.1-0.9,2-2,2H4c-1.1,0-2-0.9-2-2V4c0-1.1,0.9-2,2-2H151.4 M151.4,0H4
		C1.8,0,0,1.8,0,4v52.2c0,2.2,1.8,4,4,4h147.4c2.2,0,4-1.8,4-4V4C155.4,1.8,153.6,0,151.4,0L151.4,0z"/>
	<g>
		<path class="st1" d="M40.6,29.3V15h5.3c1,0,1.8,0.1,2.5,0.3c0.7,0.2,1.3,0.4,1.7,0.8c0.4,0.3,0.8,0.7,1,1.2c0.2,0.5,0.3,1,0.3,1.6
			c0,0.3,0,0.6-0.1,0.9c-0.1,0.3-0.2,0.6-0.4,0.8s-0.4,0.5-0.8,0.7c-0.3,0.2-0.7,0.4-1.1,0.6c0.9,0.2,1.6,0.6,2.1,1.1
			c0.5,0.5,0.7,1.2,0.7,2c0,0.6-0.1,1.2-0.4,1.7s-0.6,1-1,1.4c-0.5,0.4-1,0.7-1.7,0.9c-0.7,0.2-1.4,0.3-2.3,0.3H40.6z M43.9,21h1.7
			c0.4,0,0.7,0,1-0.1c0.3-0.1,0.5-0.1,0.8-0.3s0.4-0.3,0.5-0.5c0.1-0.2,0.2-0.5,0.2-0.9c0-0.3,0-0.6-0.1-0.8s-0.2-0.4-0.4-0.5
			c-0.2-0.1-0.4-0.2-0.7-0.3c-0.3-0.1-0.6-0.1-1-0.1h-1.9V21z M43.9,23.2v3.6h2.3c0.4,0,0.8-0.1,1.1-0.2c0.3-0.1,0.5-0.3,0.7-0.4
			c0.2-0.2,0.3-0.4,0.3-0.6c0.1-0.2,0.1-0.4,0.1-0.7c0-0.3,0-0.5-0.1-0.7c-0.1-0.2-0.2-0.4-0.4-0.5c-0.2-0.1-0.4-0.3-0.7-0.3
			c-0.3-0.1-0.6-0.1-1-0.1H43.9z"/>
		<path class="st1" d="M67.6,22.1c0,1-0.2,2-0.5,2.9c-0.4,0.9-0.9,1.7-1.5,2.3c-0.6,0.7-1.4,1.2-2.3,1.5c-0.9,0.4-1.9,0.6-3,0.6
			c-1.1,0-2.1-0.2-3-0.6c-0.9-0.4-1.7-0.9-2.3-1.5c-0.7-0.7-1.2-1.4-1.5-2.3c-0.4-0.9-0.5-1.9-0.5-2.9c0-1,0.2-2,0.5-2.9
			c0.4-0.9,0.9-1.7,1.5-2.3c0.7-0.7,1.4-1.2,2.3-1.5c0.9-0.4,1.9-0.6,3-0.6c1.1,0,2.1,0.2,3,0.6c0.9,0.4,1.7,0.9,2.3,1.5
			c0.6,0.7,1.1,1.4,1.5,2.3C67.4,20.2,67.6,21.1,67.6,22.1z M64.2,22.1c0-0.7-0.1-1.3-0.3-1.9c-0.2-0.6-0.4-1-0.8-1.4
			c-0.3-0.4-0.8-0.7-1.3-0.9c-0.5-0.2-1.1-0.3-1.7-0.3c-0.6,0-1.2,0.1-1.7,0.3c-0.5,0.2-0.9,0.5-1.3,0.9c-0.3,0.4-0.6,0.9-0.8,1.4
			c-0.2,0.6-0.3,1.2-0.3,1.9c0,0.7,0.1,1.4,0.3,1.9c0.2,0.6,0.4,1,0.8,1.4c0.3,0.4,0.8,0.7,1.3,0.9s1.1,0.3,1.7,0.3
			c0.6,0,1.2-0.1,1.7-0.3c0.5-0.2,0.9-0.5,1.3-0.9c0.3-0.4,0.6-0.9,0.8-1.4C64.1,23.5,64.2,22.8,64.2,22.1z"/>
		<path class="st1" d="M83.3,22.1c0,1-0.2,2-0.5,2.9c-0.4,0.9-0.9,1.7-1.5,2.3c-0.6,0.7-1.4,1.2-2.3,1.5c-0.9,0.4-1.9,0.6-3,0.6
			c-1.1,0-2.1-0.2-3-0.6c-0.9-0.4-1.7-0.9-2.3-1.5c-0.7-0.7-1.2-1.4-1.5-2.3c-0.4-0.9-0.5-1.9-0.5-2.9c0-1,0.2-2,0.5-2.9
			c0.4-0.9,0.9-1.7,1.5-2.3c0.7-0.7,1.4-1.2,2.3-1.5c0.9-0.4,1.9-0.6,3-0.6c1.1,0,2.1,0.2,3,0.6c0.9,0.4,1.7,0.9,2.3,1.5
			c0.6,0.7,1.1,1.4,1.5,2.3C83.1,20.2,83.3,21.1,83.3,22.1z M79.9,22.1c0-0.7-0.1-1.3-0.3-1.9c-0.2-0.6-0.4-1-0.8-1.4
			c-0.3-0.4-0.8-0.7-1.3-0.9c-0.5-0.2-1.1-0.3-1.7-0.3c-0.6,0-1.2,0.1-1.7,0.3c-0.5,0.2-0.9,0.5-1.3,0.9c-0.3,0.4-0.6,0.9-0.8,1.4
			c-0.2,0.6-0.3,1.2-0.3,1.9c0,0.7,0.1,1.4,0.3,1.9c0.2,0.6,0.4,1,0.8,1.4c0.3,0.4,0.8,0.7,1.3,0.9s1.1,0.3,1.7,0.3
			c0.6,0,1.2-0.1,1.7-0.3c0.5-0.2,0.9-0.5,1.3-0.9c0.3-0.4,0.6-0.9,0.8-1.4C79.8,23.5,79.9,22.8,79.9,22.1z"/>
		<path class="st1" d="M88.2,20.8h0.5c0.5,0,0.8-0.2,1.1-0.5l3.2-4.7c0.2-0.3,0.4-0.4,0.6-0.5s0.5-0.1,0.8-0.1h2.9l-4.2,5.8
			c-0.2,0.2-0.3,0.4-0.5,0.5s-0.3,0.3-0.5,0.3c0.2,0.1,0.5,0.2,0.7,0.4s0.4,0.4,0.6,0.6l4.3,6.6h-3c-0.2,0-0.4,0-0.5,0
			s-0.2-0.1-0.3-0.1c-0.1-0.1-0.2-0.1-0.3-0.2s-0.1-0.2-0.2-0.3l-3.2-5c-0.1-0.2-0.3-0.3-0.4-0.4c-0.2-0.1-0.4-0.1-0.7-0.1h-0.8v6.1
			h-3.3V15h3.3V20.8z"/>
		<path class="st1" d="M115.9,29.3h-2.6c-0.3,0-0.5-0.1-0.7-0.2c-0.2-0.1-0.3-0.3-0.4-0.5l-0.8-2.5H106l-0.8,2.5
			c-0.1,0.2-0.2,0.3-0.4,0.5s-0.4,0.2-0.7,0.2h-2.6L107,15h3.4L115.9,29.3z M106.8,23.8h3.9l-1.3-3.9c-0.1-0.2-0.2-0.5-0.3-0.9
			c-0.1-0.3-0.2-0.7-0.3-1.1c-0.1,0.4-0.2,0.8-0.3,1.1c-0.1,0.3-0.2,0.6-0.3,0.9L106.8,23.8z"/>
		<path class="st1" d="M59.9,34v2.6h-4v11.7h-3.3V36.6h-4V34H59.9z"/>
		<path class="st1" d="M73,48.3h-2.6c-0.3,0-0.5-0.1-0.7-0.2c-0.2-0.1-0.3-0.3-0.4-0.5l-0.8-2.5H63l-0.8,2.5
			c-0.1,0.2-0.2,0.3-0.4,0.5s-0.4,0.2-0.7,0.2h-2.6L64,34h3.4L73,48.3z M63.8,42.8h3.9l-1.3-3.9c-0.1-0.2-0.2-0.5-0.3-0.9
			c-0.1-0.3-0.2-0.7-0.3-1.1c-0.1,0.4-0.2,0.8-0.3,1.1c-0.1,0.3-0.2,0.6-0.3,0.9L63.8,42.8z"/>
		<path class="st1" d="M74.1,48.3V34h5.3c1,0,1.8,0.1,2.5,0.3c0.7,0.2,1.3,0.4,1.7,0.8c0.4,0.3,0.8,0.7,1,1.2c0.2,0.5,0.3,1,0.3,1.6
			c0,0.3,0,0.6-0.1,0.9c-0.1,0.3-0.2,0.6-0.4,0.8c-0.2,0.3-0.4,0.5-0.8,0.7c-0.3,0.2-0.7,0.4-1.1,0.6c0.9,0.2,1.6,0.6,2.1,1.1
			c0.5,0.5,0.7,1.2,0.7,2c0,0.6-0.1,1.2-0.4,1.7s-0.6,1-1,1.4c-0.5,0.4-1,0.7-1.7,0.9c-0.7,0.2-1.4,0.3-2.3,0.3H74.1z M77.4,40h1.7
			c0.4,0,0.7,0,1-0.1c0.3-0.1,0.5-0.1,0.8-0.3s0.4-0.3,0.5-0.5c0.1-0.2,0.2-0.5,0.2-0.9c0-0.3,0-0.6-0.1-0.8S81.2,37,81,36.9
			c-0.2-0.1-0.4-0.2-0.7-0.3c-0.3-0.1-0.6-0.1-1-0.1h-1.9V40z M77.4,42.2v3.6h2.3c0.4,0,0.8-0.1,1.1-0.2c0.3-0.1,0.5-0.3,0.7-0.4
			c0.2-0.2,0.3-0.4,0.3-0.6c0.1-0.2,0.1-0.4,0.1-0.7c0-0.3,0-0.5-0.1-0.7c-0.1-0.2-0.2-0.4-0.4-0.5c-0.2-0.1-0.4-0.3-0.7-0.3
			c-0.3-0.1-0.6-0.1-1-0.1H77.4z"/>
		<path class="st1" d="M90.3,45.6h5.3v2.6H87V34h3.3V45.6z"/>
		<path class="st1" d="M106.4,34v2.5h-5.9v3.3h4.5v2.5h-4.5v3.4h5.9v2.5h-9.2V34H106.4z"/>
	</g>
</g>
</svg>
